Patient4_TMGait_0pt7_01_left_20_EMG.mot
version=1
nRows=20
nColumns=33
inDegrees=no
endheader
time	1LAddLong	2LGlutMax	3LGlutMed	4LIliopsoas	5LSemiMemb	6LBicFemLong	7LRecFem	8LVastMed	9LVastLat	10LGasMed	11LTibAnt	12lTibPost	13LPeroneusLong	14LSol	15LExtDigLong	16LFlexDigLong	17RAddLong	18RGlutMax	19RGlutMed	20RIliopsoas	21RSemiMemb	22RBicFemLong	23RRecFem	24RVastMed	25RVastLat	26RGasMed	27RTibAnt	28RTibPost	29RPeroneusLong	30RSol	31RExtDigLong	32RFlexDigLong
23.36	0.003662	1.432	0.13214	0.004578	0.065002	-0.16663	0.48981	-0.029602	-0.21637	-0.06485	-0.030365	0.015411	0.87326	-0.46478	0.12009	0.052338	0.002594	1.1238	-0.17502	0.21316	-0.009003	-0.51224	0.75256	0.11002	0.031128	0.007172	-0.070038	-0.019989	-0.40955	-0.06424	-0.000916	-0.017242
23.361	-0.039978	1.5053	-0.031738	0.015717	0.011139	-0.33936	0.45441	-0.019226	-0.27145	-0.11276	0.003357	0.006409	0.45624	-0.13428	0.12085	0.056	-0.027161	1.0805	-0.19287	0.13458	0.00885	-0.47287	0.61874	0.00946	0.033875	0.009308	0.013733	-0.013275	-0.27557	-0.056763	-0.00061	-0.027771
23.362	-0.033722	1.539	-0.037689	0.015869	-0.053558	-0.24063	0.41718	-0.015259	-0.3772	-0.1294	-0.009766	0.010681	-0.73288	0.019836	0.062561	0.06546	-0.10132	1.1288	-0.17044	0.076447	-0.02182	-0.54977	0.6218	-0.019531	0.021057	0.002899	0.057526	-0.016174	-0.29404	-0.056	0.000305	-0.021973
23.363	-0.053101	1.5678	-0.032349	-0.007477	-0.089264	-0.086823	0.28793	0.005341	-0.4184	-0.099182	0.020142	0.010071	-1.6347	0.15091	-0.16632	0.057068	-0.12924	1.0056	-0.24994	0.055237	-0.039215	-0.64179	0.61996	-0.060577	0.041199	0.002441	0.021973	-0.017853	-0.383	-0.085297	0.000916	-0.012054
23.364	-0.017242	1.5532	-0.11765	-0.00412	-0.084229	0.075531	0.13184	0.020905	-0.34256	-0.082855	0.098419	0.016785	-1.0623	0.39414	0.02243	0.046539	-0.11932	0.93765	-0.19424	0.001984	-0.06546	-0.65323	0.62286	-0.014648	0.04715	-0.002594	-0.001068	-0.014496	-0.42664	-0.082092	-0.001373	-0.014648
23.365	0.006714	1.5279	-0.10513	-0.000763	-0.081177	0.036011	-0.017242	0.028534	-0.25497	-0.06897	-0.015411	0.021057	-0.62592	0.47607	-0.041809	0.056458	-0.093994	0.85953	-0.25787	0.006256	-0.054169	-0.66986	0.67551	0.041199	0.045624	-0.001526	0.005188	-0.014801	-0.37201	-0.054321	0	-0.00473
23.366	0.029755	1.5404	-0.081635	0.025024	-0.045319	-0.47287	-0.13092	0.011902	-0.21515	-0.082855	0.001221	0.015564	0.11902	0.20004	-0.058594	0.058289	-0.00946	0.77896	-0.31693	-0.051575	-0.058441	-0.85144	0.68146	-0.028076	0.04303	0.002747	0.013428	-0.018616	-0.19409	-0.037384	-0.000458	-0.006561
23.367	0.038757	1.5443	0.066376	0.024872	-0.026855	-0.20142	-0.31174	0.025177	-0.24262	-0.039673	0.00351	0.021973	0.6955	0.23636	0.01236	0.075684	0.11398	0.7045	-0.32181	-0.016174	-0.085297	-0.96374	0.77301	-0.010071	0.042114	0.016174	0.009613	-0.01709	0.077667	-0.018005	-0.006866	-0.01358
23.368	0.027466	1.535	0.011292	0.005341	-0.014038	0.21149	-0.3801	0.04776	-0.20859	0.022583	-0.014801	0.022278	0.065918	0.26611	-0.036469	0.071259	0.25787	0.62576	-0.25391	-0.00412	-0.12314	-0.80551	0.84518	-0.012512	0.038147	0.008545	-0.016479	-0.018768	0.36499	0.001831	-0.002747	-0.020599
23.369	0.023804	1.5154	-0.13565	0.003815	-0.011139	0.37933	-0.33661	0.045319	-0.047302	0.062256	-0.05188	0.032349	-0.17868	0.13718	-0.083466	0.070038	0.24979	0.47363	-0.061951	-0.014801	-0.14145	-0.67871	0.9642	-0.006866	0.019226	0.01358	-0.019226	-0.019379	0.42084	0.030823	-0.002594	-0.009918
23.37	0.017853	1.5729	-0.19486	0.00061	-0.084686	0.23224	-0.44037	0.037994	0.0737	-0.005188	-0.075073	0.039063	0.61813	0.007629	-0.11246	0.071869	0.2298	0.28427	0.010681	0	-0.14862	-0.58289	1.1455	0.007935	-0.007477	0.010223	0.000916	-0.017395	0.17517	0.04303	-0.002899	-0.018768
23.371	0.006104	1.6461	0.079803	-0.007324	-0.13458	-0.16846	-0.47211	0.029449	0.18875	-0.036316	-0.040588	0.036926	0.75012	-0.27542	-0.085754	0.05127	0.14389	0.12817	0.36133	-0.025177	-0.14206	-0.44403	1.2486	0.079193	0.00061	0.011902	0.011292	-0.015564	-0.086517	0.02594	-0.001678	-0.020142
23.372	0.006714	1.6299	0.16373	0.00061	-0.084381	-0.22842	-0.37582	-0.021362	0.1564	-0.022888	-0.008087	0.046387	0.53207	-0.18555	-0.030212	0.040131	-0.03418	0.015411	0.086975	0.089569	-0.16113	-0.30807	1.2367	0.12833	-0.008087	0.014954	0.005341	-0.010071	-0.19287	0.006104	-0.003052	-0.016174
23.373	0.010529	1.5715	0.1355	-0.003967	-0.12314	-0.098877	-0.17197	-0.01358	-0.20416	-0.057373	0.005646	0.041199	-0.29114	0.159	0.09201	0.045776	-0.18646	-0.098419	-0.18814	0.1004	-0.14053	-0.17258	1.0252	0.14618	0.031281	0.003204	0.013733	0.013123	-0.2327	0.002899	-0.001068	-0.022736
23.374	0.015564	1.554	0.22217	0.009308	-0.052032	-0.45441	-0.10071	-0.006561	-0.31464	0.002441	0.028687	0.045319	-1.0001	0.065765	-0.02594	0.045776	-0.2446	-0.28137	-0.29007	0.08728	-0.12329	-0.10483	0.91644	0.17609	0.028992	0.007782	0.056	-0.004883	-0.1651	0.039825	0.009766	-0.021667
23.375	0.040131	1.5039	0.15427	0.014801	0.007477	-0.46906	-0.17639	-0.028076	-0.24551	-0.023346	0.001984	0.064545	-0.97351	-0.080414	-0.016022	0.034027	-0.19867	-0.34317	-0.35645	0.14923	-0.16144	-0.089111	0.91248	0.18356	0.011749	-0.000458	0.077362	-0.02243	0.014801	0.033417	-0.002136	-0.025177
23.376	0.046692	1.4644	0.25345	0.002594	0.05722	-0.29175	-0.16724	-0.024261	-0.35828	-0.015411	-0.029907	0.050201	-0.25406	-0.39612	-0.13062	0.043793	-0.090332	-0.3331	-0.37277	0.11429	-0.14938	0.001678	0.91904	0.11032	0.00412	-0.007782	0.082855	-0.019531	0.17792	0.066986	-0.002594	-0.022888
23.377	0.026093	1.3737	0.22324	-0.006104	0.02594	-0.12543	-0.17731	-0.014648	-0.46799	-0.033264	-0.02594	0.060577	0.12192	-0.4628	-0.072784	0.035858	-0.046082	-0.40436	-0.19699	0.093079	-0.1413	0.009003	0.88272	0.042572	-0.011902	-0.027466	0.005188	-0.025177	0.35721	0.049896	0	-0.027466
23.378	0.019379	1.2633	0.032349	0.015869	-0.018921	-0.092316	-0.21744	0.003967	-0.20844	-0.008392	0.024261	0.060577	-0.27969	-0.20767	0.056152	0.028534	-0.037384	-0.46829	-0.27908	0.090637	-0.17517	-0.004578	0.86975	0.050354	-0.023041	-0.023956	-0.13092	-0.013733	0.41275	0.021973	-0.006561	-0.021057
23.379	0.016327	1.1519	0.013428	0.008545	-0.050659	-0.15884	-0.18753	0.015259	0.036011	-0.005951	0.008698	0.054626	-0.16052	0.039063	0.1387	0.021667	0.00412	-0.38254	-0.24765	0.049286	-0.14862	0.018158	0.72723	0.089264	-0.011444	-0.028992	-0.076141	-0.018158	0.2858	0.018616	-0.003204	-0.008698
